<svg xmlns="http://www.w3.org/2000/svg" fill="none" viewBox="0 0 32 32">
  <style>
    path {
        fill: black;
    }
    @media (prefers-color-scheme: dark) {
      path {
          fill: white;
      }
    }
  </style>
  <path fill="#000" fill-rule="evenodd" d="M7 24.4c-4-.6-7-3.8-7-8.7C0 11 2.7 7.6 7.6 7.4 8 3 11.3 0 16.3 0c4.6 0 7.9 2.5 8.3 7.1 4.2.6 7.4 3.9 7.4 9 0 5-2.8 8.2-7.1 8.8-.7 4-4 7.1-9 7.1-5.2 0-8.4-3-8.8-7.6zm17.8-3.2c2.8-.6 4-2.7 4-5.1 0-2.8-1.7-5.3-5.4-5.3-2.9 0-4.2 1.5-5.2 3.5 3 1.2 6 2.8 6.6 7zm-8-3.4c2.4 1 4.4 2.3 4.4 5.6 0 3.7-2.5 5.4-5.3 5.4-2.5 0-4.8-1.4-5.2-4.6 3.6-.8 5-3.6 6-6.4zm-2-4.9c1-2.6 2.6-5 6.2-5.7-.4-3-2.5-4-4.7-4-2.5 0-5 1.5-5 4.9 0 2.6 1.5 3.9 3.4 4.8zm-1.5 3.5c-1 2.4-2.3 4.3-5.2 4.3-3.4 0-4.9-2.5-4.9-5 0-2.3 1.2-4.6 4.7-4.7.8 3 3 4.4 5.4 5.4z" clip-rule="evenodd"/>
</svg>